<mxfile host="app.diagrams.net" modified="2021-11-11T16:36:49.967Z" agent="5.0 (Windows NT 10.0; Win64; x64) AppleWebKit/537.36 (KHTML, like Gecko) Chrome/95.0.4638.69 Safari/537.36" etag="55J7Vnem7hPuv9OnkIeL" version="15.7.1" type="github">
  <diagram id="Kaz25HEuaTezDz_CF3ls" name="Page-1">
    <mxGraphModel dx="2586" dy="920" grid="1" gridSize="10" guides="1" tooltips="1" connect="1" arrows="1" fold="1" page="1" pageScale="1" pageWidth="850" pageHeight="1100" math="0" shadow="0">
      <root>
        <mxCell id="0" />
        <mxCell id="1" parent="0" />
        <mxCell id="WXU4jRFerAaBjSiae38b-2" value="&lt;font style=&quot;font-size: 37px&quot;&gt;&lt;b&gt;0&lt;/b&gt;&lt;/font&gt;" style="text;html=1;align=right;verticalAlign=middle;resizable=0;points=[];autosize=1;strokeColor=none;fillColor=none;" vertex="1" parent="1">
          <mxGeometry x="20" y="1080" width="40" height="30" as="geometry" />
        </mxCell>
        <mxCell id="WXU4jRFerAaBjSiae38b-3" value="&lt;font style=&quot;font-size: 37px&quot;&gt;&lt;b&gt;20&lt;/b&gt;&lt;/font&gt;" style="text;html=1;align=right;verticalAlign=middle;resizable=0;points=[];autosize=1;strokeColor=none;fillColor=none;" vertex="1" parent="1">
          <mxGeometry y="930" width="60" height="30" as="geometry" />
        </mxCell>
        <mxCell id="WXU4jRFerAaBjSiae38b-4" value="&lt;font style=&quot;font-size: 37px&quot;&gt;&lt;b&gt;40&lt;/b&gt;&lt;/font&gt;" style="text;html=1;align=right;verticalAlign=middle;resizable=0;points=[];autosize=1;strokeColor=none;fillColor=none;" vertex="1" parent="1">
          <mxGeometry y="770" width="60" height="30" as="geometry" />
        </mxCell>
        <mxCell id="WXU4jRFerAaBjSiae38b-5" value="&lt;font style=&quot;font-size: 37px&quot;&gt;&lt;b&gt;60&lt;/b&gt;&lt;/font&gt;" style="text;html=1;align=right;verticalAlign=middle;resizable=0;points=[];autosize=1;strokeColor=none;fillColor=none;" vertex="1" parent="1">
          <mxGeometry y="620" width="60" height="30" as="geometry" />
        </mxCell>
        <mxCell id="WXU4jRFerAaBjSiae38b-6" value="&lt;font style=&quot;font-size: 37px&quot;&gt;&lt;b&gt;80&lt;/b&gt;&lt;/font&gt;" style="text;html=1;align=right;verticalAlign=middle;resizable=0;points=[];autosize=1;strokeColor=none;fillColor=none;" vertex="1" parent="1">
          <mxGeometry y="460" width="60" height="30" as="geometry" />
        </mxCell>
        <mxCell id="WXU4jRFerAaBjSiae38b-7" value="&lt;font style=&quot;font-size: 37px&quot;&gt;&lt;b&gt;100&lt;/b&gt;&lt;/font&gt;" style="text;html=1;align=right;verticalAlign=middle;resizable=0;points=[];autosize=1;strokeColor=none;fillColor=none;" vertex="1" parent="1">
          <mxGeometry x="-20" y="310" width="80" height="30" as="geometry" />
        </mxCell>
        <mxCell id="WXU4jRFerAaBjSiae38b-8" value="&lt;font style=&quot;font-size: 30px&quot;&gt;&lt;b&gt;Incorrect mask&lt;/b&gt;&lt;/font&gt;" style="text;html=1;align=center;verticalAlign=middle;resizable=0;points=[];autosize=1;strokeColor=none;fillColor=none;fontSize=37;" vertex="1" parent="1">
          <mxGeometry x="130" y="1110" width="230" height="50" as="geometry" />
        </mxCell>
        <mxCell id="WXU4jRFerAaBjSiae38b-9" value="&lt;font style=&quot;font-size: 30px&quot;&gt;&lt;b&gt;With mask&lt;/b&gt;&lt;/font&gt;" style="text;html=1;align=center;verticalAlign=middle;resizable=0;points=[];autosize=1;strokeColor=none;fillColor=none;fontSize=37;" vertex="1" parent="1">
          <mxGeometry x="534.5" y="1110" width="170" height="50" as="geometry" />
        </mxCell>
        <mxCell id="WXU4jRFerAaBjSiae38b-10" value="&lt;font style=&quot;font-size: 30px&quot;&gt;&lt;b&gt;Without mask&lt;/b&gt;&lt;/font&gt;" style="text;html=1;align=center;verticalAlign=middle;resizable=0;points=[];autosize=1;strokeColor=none;fillColor=none;fontSize=37;" vertex="1" parent="1">
          <mxGeometry x="885" y="1110" width="210" height="50" as="geometry" />
        </mxCell>
        <mxCell id="WXU4jRFerAaBjSiae38b-24" value="" style="rounded=0;whiteSpace=wrap;html=1;fontSize=28;fillColor=#FFFFFF;align=left;strokeColor=none;" vertex="1" parent="1">
          <mxGeometry x="1100" y="280" width="120" height="60" as="geometry" />
        </mxCell>
        <mxCell id="WXU4jRFerAaBjSiae38b-26" value="" style="shape=image;verticalLabelPosition=bottom;labelBackgroundColor=#ffffff;verticalAlign=top;aspect=fixed;imageAspect=0;image=data:image/png,iVBORw0KGgoAAAANSUhEUgAABF8AAAM0CAIAAADiLBokAAAAAXNSR0IArs4c6QAAAARnQU1BAACxjwv8YQUAAAAJcEhZcwAADsMAAA7DAcdvqGQAABs9SURBVHhe7d1/rNZ13cfxcyCKjlnO4l6r+/ZeNJ0sDoRnylisbCm7l782kQjY4ZiSJzz+OPaHNop2Soux5cQw2fUHLjqCnpWYsWi43FxrIWzXdCWcIrUbKcy6TQaeSTi57u+L69sxNg0kzjlc5zwefxze3891XWfnr/fOc9fF9zTXarUmAACAMW9c+S8AAMDY9sZ7R9VqtT4AAACMQUfVUVtbW32Gf62/v3/KlCnlBcBJYrcAQ8Fu4fj5ZB0AAECoIwAAgFBHAAAAoY4AAABCHQEAAIQ6AgAACHUEAAAQ6ggAAGgwS5cuLad/8q1vfWvPnj3lxQnx12A5Ef6qGjAU7BZgKNgtJ0XP9p5yevt6Ljjx1w4z7x0BAAAjY+PGjbfccssXv/jFyy677KGHHpozZ84dd9yxZs2aF198ccmSJR0dHddcc83evXuLZ/74xz+eO3fuvHnzNm/eXFzOnDmzfnjVVVctWLDgG9/4RnHZ3t6+a9euAwcOdHV1FXNxvmPHjuL84osvXrly5fz584vvefjw4eLkragjAABgxDzzzDNFDq1bt27VqlWHDh365Cc/uXTp0rvvvrvoouKwCKR77733lVdeKb6uX79+7dq1mzZtKl/Z1FRcrl69+oEHHpg6derBgwfrh8Wrpk+f3tvbu2zZshUrVhQne/bsueKKK/r6+vbv3/+73/2u/rQ3pY4AAIARc/7557/jHe8488wz3/e+97388svTpk0rDp988skie9rb2yuVyr59+5577rnJkydPnDjxve99b5FS9RcWLr300q6uru9///uf+tSnikfrh08//XT9naXW1tbdu3cXw3ve855zzz23GD74wQ8eOHAgT3oL6ggAABgxgx91q9Vqzc3NEyZMKObi6913393b27thw4Z77rln3Lhxb/qJuM7OzuLR4oUdHR1FWdUPi28yeG+F+qvGjx9fvywMPvSm1BEAADBinnrqqddff/1vf/vbwMDAGWecUT+cPn36z3/+82LYunXrpk2bJk+e/Ic//KF4wt///vcvfOEL9cIpyueuu+6aNGlScfLxj3+8/t+TCq2trdu2bSuG4jufffbZ9cPjpI4AAIAR8+EPf/jmm2/u6Ojo7u4eN67MkxtuuOGxxx5btGjR9773vaJ8WlpabrrppqKC2tvb582b19zcXDynePJpp502f/784rXFyeCdCRcvXrxjx47i65133vnVr361fnic3NGbE+HOmMBQsFuAoWC3nMo2btz4+9///rbbbiuvR5r3jgAAAEIdAQAAI+PKK688dd44KqgjAACAUEcAAAChjgAAAEIdAQAAhDoCAAAazMyZM4uv7e3tu3btqp+cFP7eESfC3w0AhoLdAgwFu+WkmHXjI+X09m1dfUU5nTxFHW3btq2oo+XLl59zzjnl6b/Ne0cAAMDI2LhxY3d398KFC9esWfP5z3++GO67777ifP/+/dddd11x2dnZOTAw8Oc//7kIocKCBQuef/75+muHgjoCAABGzAsvvLBy5cpf/epXDzzwwPr16x999NG9e/euXbt29uzZGzZsmDVr1tatW//yl790dXX19vbOnTu3OCxfOQTUEQAAMGJaW1t/85vf7N69e/ERAwMDf/rTn3bu3HneeecVj1599dUXXXTRpEmTijRatGjRunXr9u3bV3/hUFBHAADAiJlwxIUXXlj0T2HTpk3nn3/++PHjDx8+XD6jqem73/3u7Nmz169f39XVVR4NDXUEAACMpI997GPbtm179dVXa7XaHXfccfDgwalTpz7xxBPFQw8++ODDDz/88ssvn3XWWcWjjz322GuvvVZ/1VBQRwAAwEj60Ic+tHjx4kWLFn3uc5+bNGnSxIkTOzo6nnzyyfb29scff/ziiy+eP3/+7bffvmTJkksuuWT79u2//OUvy1eebO7ozYlwZ0xgKNgtwFCwWzh+3jsCAAAIdQQAABDqCAAAINQRAABAqCMAAIA46p51LS0t9Rn+tYMHD06cOLG8ADhJ7BYYs665d1c5NZr7rj+nnBgV3NGbE+HOmMBQsFtgzJp14yPl1Gi2rr6inHj7XnvttYULF06ePHnu3Lk333zzt7/97U9/+tPlYyNEHXEi/AYDDAW7BcYsdXTq6+zsLKe3r1KplNPR9u7du3Tp0tWrV69YsWLcuHFXXXXViNeR/3cEAACMgCKKnn/++TVr1txzzz2nn356efpPdu7cOX/+/Pb29muvvXb/Edddd93ChQuLVBsYGDhw4EBXV1fx6IIFC3bs2FE8f86cOd3d3T/84Q+feeaZxYsXd3R0XH/99cWr6t/teKgjAABgBNx2220f+chHikYaP358eXS0jRs3FuXT29u7ZMmSv/71r2vXrp09e/aGDRtmzZq1devWdevWTZ8+vXh02bJlxTcpnr9nz56il+bNm3f77bd/85vfLJ7wiU98Yv369fXvdjzUEQAAcCr6zGc+s2bNmlWrVr3//e//6Ec/unPnzvPOO684v/rqqy+66KKnn3565syZxWVra+vu3buL4d3vfvfZZ59dDL/+9a+XL1/e3t7+k5/85KWXXipOjpM6AgAAThUHDx4sqqbw+OOPz5o160c/+tHkyZO/8pWvPPHEE+PHjz98+HD5vKam5uY37qFQP58wYUL9ssikH/zgB729vX19fV/72tfqh8dDHQEAAKeKiRMnFlVTuPDCC++///59+/ZdfvnlHR0d/f39U6dOLRqpeM6DDz748MMPt7a2btu2rbh86qmn6m8ZDTr33HN/8YtfFMNPf/rTrVu31g+Ph3vWjVru/QKnsp7tPeXUaHouGMKf3D3rYMxq3N9bph3aXE6N5q3uI/dWhuKedX/84x9vOmLt2rXPPffcmWeeOWnSpPvuu698uKmpKJxVq1adfvrp73znO1esWPGud73r1ltvfeWVV0477bTvfOc7xROWLVtW5FNRNF//+teLQJo5c2a9l5599tnly5ePGzeueMmdd955xhlnHPl+x6aORi11BKcydfSm1BGMWepo+L3dOhojfLIOAAAg1BEAAECoIwAAgFBHAAAAoY4AAABCHQEAAIQ7eo9a7ugNpzJ39H5T7ugN/6bG3S1bemeUU6NxR+9RxntHAAAAoY4AAABCHQEAAIQ6AgAACHUEAAAQ6ggAACDUEQAAQKgjAACAUEcAAAChjgAAAEIdAQAAhDoCAAAIdQQAABDqCAAAINQRAABAqCMAAIBQRwAAAKGOAAAAQh0BAACEOgIAAAh1BAAAEOoIAAAgmmu1Wn2qVqttbW31mVFg1o2PlFOjmXZoczk1mkqlUk5wLD3be8qp0fRcMIQ/eX9//5QpU8oL4O1r3N2ypXdGOTUav7eMMt47AgAACHUEAAAQ6ggAACDUEQAAQKgjAACAUEcAAAChjgAAAEIdAQAAhDoCAAAIdQQAABDqCAAAINQRAABAqCMAAIBQRwAAAKGOAAAAorlWq9WnarXa1tZWnxkFZt34SDk1mmmHNpdTo6lUKuUEx9KzvaecGk3PBUP4k/f390+ZMqW8ONk6OzvLqdHYLRy/xt0tW3pnlFOj8XvLKOO9IwAAgFBHAAAAoY4AAABCHQEAAIQ6AgAACHUEAAAQ6ggAACDUEQAAQKgjAACAUEcAAAChjgAAAEIdAQAAhDoCAAAIdQQAABDNtVqtPlWr1ba2tvrMoJ7tPeXUaLb0ziinRjPt0OZyajSVSqWc4Fgad7f0XDCEP3l/f/+UKVPKi5Ots7OznBqN3cLx83vL8PN7yyjjvSMAAIBQRwAAAKGOAAAAQh0BAACEOgIAAAh1BAAAEOoIAAAg1BEAAECoIwAAgFBHAAAAoY4AAABCHQEAAIQ6AgAACHUEAAAQ6ggAACCaa7VafapWq21tbfWZQT3be8qp0WzpnVFOjWbaoc3l1GgqlUo5wbHYLcPPbmEssFuGn90yynjvCAAAINQRAABAqCMAAIBQRwAAAKGOAAAAQh0BAACEOgIAAAh1BAAAEOoIAAAg1BEAAECoIwAAgFBHAAAAoY4AAABCHQEAAIQ6AgAACHUEAAAQ6ggAACDUEQAAQKgjAACAUEcAAAChjgAAAEIdAQAAhDoCAAAIdQQAABDqCAAAINQRAABAqCMAAIBQRwAAAKGOAAAAQh0BAACEOgIAAAh1BAAAEOoIAAAg1BEAAECoIwAAgFBHAAAAoY4AAABCHQEAAIQ6AgAACHUEAAAQ6ggAACDUEQAAQKgjAACAUEcAAAChjgAAAEIdAQAAhDoCAAAIdQQAABDqCAAAINQRAABAqCMAAIBQRwAAAKGOAAAAQh0BAACEOgIAAAh1BAAAEOoIAAAg1BEAAECoIwAAgFBHAAAAoY4AAABCHQEAAIQ6AgAACHUEAAAQ6ggAACDUEQAAQKgjAACAUEcAAAChjgAAAKK5VqvVp2q12tLSUp8Z1Hegr5wazZbeGeXUaKYd2lxOjaa7u7uc4FjsluFntzAW2C3Dz24ZZY6qo7a2tvrMoJ7tPeXUaGyZ4VepVMoJjsVuGX52C2OB3TL87JZRxifrAAAAQh0BAACEOgIAAAh1BAAAEOoIAAAg1BEAAECoIwAAgFBHAAAAoY4AAABCHQEAAIQ6AgAACHUEAAAQ6ggAACDUEQAAQKgjAACAUEcAAAChjgAAAEIdAQAAhDoCAAAIdQQAABDqCAAAINQRAABAqCMAAIBQRwAAAKGOAAAAQh0BAACEOgIAAAh1BAAAEOoIAAAg1BEAAECoIwAAgFBHAAAAoY4AAABCHQEAAIQ6AgAACHUEAAAQ6ggAACDUEQAAQKgjAACAUEcAAAChjgAAAEIdAQAAhDoCAAAIdQQAABDqCAAAINQRAABAqCMAAIBQRwAAAKGOAAAAQh0BAACEOgIAAAh1BAAAEOoIAAAg1BEAAECoIwAAgFBHAAAAoY4AAABCHQEAAIQ6AgAACHUEAAAQ6ggAACDUEQAAQKgjAACAUEcAAAChjgAAAEIdAQAAhDoCAAAIdQQAABDqCAAAINQRAABAqCMAAIBQRwAAAKGOAAAAQh0BAACEOgIAAAh1BAAAEOoIAAAg1BEAAECoIwAAgFBHAAAAoY4AAABCHQEAAIQ6AgAACHUEAAAQ6ggAACDUEQAAQKgjAACAUEcAAAChjgAAAEIdAQAAhDoCAAAIdQQAABDqCAAAINQRAABAqCMAAIBQRwAAAKGOAAAAQh0BAACEOgIAAAh1BAAAEOoIAAAg1BEAAECoIwAAgFBHAAAAoY4AAABCHQEAAIQ6AgAACHUEAAAQ6ggAACDUEQAAQKgjAACAUEcAAAChjgAAAEIdAQAAhDoCAAAIdQQAABDqCAAAINQRAABAqCMAAIBQRwAAAKGOAAAAQh0BAACEOgIAAAh1BAAAEOoIAAAg1BEAAECoIwAAgFBHAAAAoY4AAABCHQEAAIQ6AgAACHUEAAAQ6ggAACDUEQAAQKgjAACAUEcAAAChjgAAAEIdAQAAhDoCAAAIdQQAABDqCAAAINQRAABAqCMAAIBQRwAAAKGOAAAAQh0BAACEOgIAAAh1BAAAEOoIAAAg1BEAAECoIwAAgFBHAAAAoY4AAACiuVar1adqtdrS0lKfGdR3oK+cGs2W3hnl1GimHdpcTo2mu7u7nOBY7JbhZ7cwFtgtw89uGWWOqqO2trb6zKCe7T3l1GhsmeFXqVTKCY7Fbhl+dgtjgd0y/OyWUcYn6wAAAEIdAQAAhDoCAAAIdQQAABDqCAAAINQRAABAqCMAAIBQRwAAAKGOAAAAQh0BAACEOgIAAAh1BAAAEOoIAAAg1BEAAECoIwAAgFBHAAAAoY4AAABCHQEAAIQ6AgAACHUEAGPLs8+9+rNHX/rtroHyGoB/UEcAMIZs+tn/Xdu1c+Vd//ulm3/b99CL5SkAR6gjABhD1ve9UE5NTfc/+MYMQEEdAcAYMjDwejkdmWu1cgagoI4AYAy55H8+UE5NTZd+dlJzczkDUFBHADCGfOna//zyjWd9ds4Hblr6X1++4azyFIAj1BEAjC2Xf3bSrbf895WX/0d5DcA/qCMAAIBQRwAAAKGOAAAAQh0BAACEOgIAAAh1BAAAEOoIAAAg1BEAAECoIwAAgFBHAAAAoY4AAABCHQEAAIQ6AgAACHUEAAAQ6ggAACDUEQAAQKgjAACAUEcAAAChjgAAAEIdAQAAhDoCAAAIdQQAABDqCAAAINQRAABAqCMAAIBQRwAAAKGOAAAAQh0BAACEOgIAAAh1BAAAEOoIAAAg1BEAAECoIwAAgFBHAAAAoY4AAABCHQEAAIQ6AgAACHUEAAAQ6ggAACDUEQAAQKgjAACAUEcAAAChjgAAAEIdAQAAhDoCAAAIdQQAABDqCAAAINQRAABAqCMAAIBQRwAAAKGOAAAAQh0BAACEOgIAAAh1BAAAEOoIAAAg1BEAAECoIwAAgFBHAAAAoY4AAABCHQEAAIQ6AgAACHUEAAAQ6ggAACDUEQAAQKgjAACAUEcAAAChjgAAAEIdAQAAhDoCAAAIdQQAABDqCAAAINQRAABAqCMAAIBQRwAAAKGOAAAAQh0BAACEOgIAAAh1BAAAEOoIAAAg1BEAAECoIwAAgFBHAAAAoY4AAABCHQEAAIQ6AgAACHUEAAAQ6ggAACDUEQAAQKgjAACAUEcAAAChjgAAAEIdAQAAhDoCAAAIdQQAABDqCAAAINQRAABAqCMAAIBQRwAAAKGOAAAAQh0BAACEOgIAAAh1BAAAEOoIAAAg1BEAAECoIwAAgFBHAAAAoY4AAABCHQEAAIQ6AgAACHUEAAAQ6ggAACDUEQAAQKgjAACAUEcAAAChjgAAAEIdAQAAhDoCAAAIdQQAABDqCAAAINQRAABAqCMAAIBQRwAAAKGOAAAAQh0BAACEOgIAAAh1BAAAEOoIAAAgmmu1Wn2qVqstLS31mUF9B/rKqdFs6Z1RTo1m2qHN5dRouru7ywmOxW4ZfnYLY4HdMvzsllHmqDpqa2urzwzq2d5TTo3Glhl+lUqlnOBY7JbhZ7cwFtgtw89uGWV8sg4AACDUEQAAQKgjAACAUEcAAAChjgAAAEIdAQAAhDoCAAAIdQQAABDqCAAAINQRAABAqCMAAIBQRwAAAKGOAAAAQh0BAACEOgIAAAh1BAAAEOoIAAAg1BEAAECoIwAAgFBHAAAAoY4AAABCHQEAAIQ6AgAACHUEAAAQ6ggAACDUEQAAQKgjAACAUEcAAAChjgAAAEIdAQAAhDoCAAAIdQQAABDqCAAAINQRAABAqCMAAIBQRwAAAKGOAAAAQh0BAACEOgIAAAh1BAAAEOoIAAAg1BEAAECoIwAAgFBHAAAAoY4AAABCHQEAAIQ6AgAACHUEAAAQ6ggAACDUEQAAQKgjAACAUEcAAAChjgAAAEIdAQAAhDoCAAAIdQQAABDqCAAAINQRAABAqCMAAIBQRwAAAKGOAAAAQh0BAACEOgIAAAh1BAAAEOoIAAAg1BEAAECoIwAAgFBHAAAAoY4AAABCHQEAAIQ6AgAACHUEAAAQ6ggAACDUEQAAQKgjAACAUEcAAAChjgAAAEIdAQAAhDoCAAAIdQQAABDqCAAAINQRAABAqCMAAIBQRwAAAKGOAAAAQh0BAACEOgIAAAh1BAAAEOoIAAAg1BEAAECoIwAAgFBHAAAAoY4AAABCHQEAAIQ6AgAACHUEAAAQ6ggAACDUEQAAQKgjAACAUEcAAAChjgAAAEIdAQAAhDoCAAAIdQQAABDqCAAAINQRAABAqCMAAIBQRwAAAKGOAAAAQh0BAACEOgIAAAh1BAAAEOoIAAAg1BEAAECoIwAAgFBHAAAAoY4AAABCHQEAAIQ6AgAACHUEAAAQ6ggAACDUEQAAQKgjAACAUEcAAAChjgAAAEIdAQAAhDoCAAAIdQQAABDqCAAAINQRAABAqCMAAIBQRwAAAKGOAAAAQh0BAACEOgIAAAh1BAAAEOoIAAAg1BEAAECoIwAAgFBHAAAAoY4AAABCHQEAAIQ6AgAACHUEAAAQ6ggAACDUEQAAQKgjAACAUEcAAAChjgAAAEIdAQAAhDoCAAAIdQQAABDqCAAAINQRAABANNdqtfpUrVZbWlrqM4P6DvSVU6PZ0jujnBrNtEOby6nRdHd3lxMci90y/OwWxgK7ZfjZLaPMUXXU1tZWnxnUs72nnBqNLTP8KpVKOcGx2C3Dz25hLLBbhp/dMsr4ZB0AAECoIwAAgFBHAAAAoY4AAABCHQEAAIQ6AgAACHUEAAAQ6ggAACDUEQAAQKgjAACAUEcAAAChjgAAAEIdAQAAhDoCAAAIdQQAABDqCAAAINQRAABAqCMAAIBQRwAAAKGOAAAAQh0BAACEOgIAAAh1BAAAEOoIAAAg1BEAAECoIwAAgFBHAAAAoY4AAABCHQEAAIQ6AgAACHUEAAAQ6ggAACDUEQAAQKgjAACAUEcAAAChjgAAAEIdAQAAhDoCAAAIdQQAABDqCAAAINQRAABAqCMAAIBQRwAAAKGOAAAAQh0BAACEOgIAAAh1BAAAEOoIAAAg1BEAAECoIwAAgFBHAAAAoY4AAABCHQEAAIQ6AgAACHUEAAAQ6ggAACDUEQAAQKgjAACAUEcAAAChjgAAAEIdAQAAhDoCAAAIdQQAABDqCAAAINQRAABAqCMAAIBQRwAAAKGOAAAAQh0BAACEOgIAAAh1BAAAEOoIAAAg1BEAAECoIwAAgFBHAAAAoY4AAABCHQEAAIQ6AgAACHUEAAAQ6ggAACDUEQAAQKgjAACAUEcAAAChjgAAAEIdAQAAhDoCAAAIdQQAABDqCAAAINQRAABAqCMAAIBQRwAAAKGOAAAAQh0BAACEOgIAAAh1BAAAEOoIAAAg1BEAAECoIwAAgFBHAAAAoY4AAABCHQEAAIQ6AgAACHUEAAAQ6ggAACDUEQAAQKgjAACAUEcAAAChjgAAAEIdAQAAhDoCAAAIdQQAABDqCAAAINQRAABAqCMAAIBQRwAAAKGOAAAAQh0BAACEOgIAAAh1BAAAEOoIAAAg1BEAAECoIwAAgFBHAAAAoY4AAABCHQEAAIQ6AgAACHUEAAAQ6ggAACDUEQAAQKgjAACAUEcAAAChjgAAAEIdAQAAhDoCAAAIdQQAABDqCAAAINQRAABAqCMAAIBQRwAAAKGOAAAAQh0BAACEOgIAAAh1BAAAEOoIAAAg1BEAAECoIwAAgFBHAAAAoY4AAABCHQEAAIQ6AgAACHUEAAAQ6ggAACDUEQAAQDTXarX6VK1W6wMAAMAY9EYdAQAAjGU+WQcAANDU1NT0/50E3K/jl6/xAAAAAElFTkSuQmCC;" vertex="1" parent="1">
          <mxGeometry x="60" y="280" width="1119" height="820" as="geometry" />
        </mxCell>
        <mxCell id="WXU4jRFerAaBjSiae38b-23" value="" style="group" vertex="1" connectable="0" parent="1">
          <mxGeometry x="1100" y="280" width="210" height="130" as="geometry" />
        </mxCell>
        <mxCell id="WXU4jRFerAaBjSiae38b-12" value="" style="rounded=0;whiteSpace=wrap;html=1;fontSize=30;fillColor=#FFFFFF;align=right;strokeColor=none;" vertex="1" parent="WXU4jRFerAaBjSiae38b-23">
          <mxGeometry width="70" height="50" as="geometry" />
        </mxCell>
        <mxCell id="WXU4jRFerAaBjSiae38b-18" value="" style="rounded=0;whiteSpace=wrap;html=1;fontSize=30;align=right;fillColor=#386CB0;strokeColor=none;" vertex="1" parent="WXU4jRFerAaBjSiae38b-23">
          <mxGeometry y="50" width="60" height="30" as="geometry" />
        </mxCell>
        <mxCell id="WXU4jRFerAaBjSiae38b-19" value="&lt;font style=&quot;font-size: 28px&quot;&gt;&lt;b&gt;Recall&amp;nbsp; &amp;nbsp;&amp;nbsp;&lt;/b&gt;&lt;/font&gt;" style="text;html=1;align=left;verticalAlign=middle;resizable=0;points=[];autosize=1;strokeColor=none;fillColor=none;fontSize=37;" vertex="1" parent="WXU4jRFerAaBjSiae38b-23">
          <mxGeometry x="70" y="40" width="130" height="50" as="geometry" />
        </mxCell>
        <mxCell id="WXU4jRFerAaBjSiae38b-11" value="" style="rounded=0;whiteSpace=wrap;html=1;fontSize=30;align=right;fillColor=#7FC97F;strokeColor=none;" vertex="1" parent="WXU4jRFerAaBjSiae38b-23">
          <mxGeometry y="10" width="60" height="30" as="geometry" />
        </mxCell>
        <mxCell id="WXU4jRFerAaBjSiae38b-14" value="&lt;font style=&quot;font-size: 28px&quot;&gt;&lt;b&gt;Precision&lt;/b&gt;&lt;/font&gt;" style="text;html=1;align=left;verticalAlign=middle;resizable=0;points=[];autosize=1;strokeColor=none;fillColor=none;fontSize=37;" vertex="1" parent="WXU4jRFerAaBjSiae38b-23">
          <mxGeometry x="70" width="140" height="50" as="geometry" />
        </mxCell>
        <mxCell id="WXU4jRFerAaBjSiae38b-21" value="" style="rounded=0;whiteSpace=wrap;html=1;fontSize=30;align=right;fillColor=#666666;strokeColor=none;" vertex="1" parent="WXU4jRFerAaBjSiae38b-23">
          <mxGeometry y="90" width="60" height="30" as="geometry" />
        </mxCell>
        <mxCell id="WXU4jRFerAaBjSiae38b-22" value="&lt;span style=&quot;font-size: 28px&quot;&gt;&lt;b&gt;F1-score&lt;/b&gt;&lt;/span&gt;" style="text;html=1;align=left;verticalAlign=middle;resizable=0;points=[];autosize=1;strokeColor=none;fillColor=none;fontSize=37;" vertex="1" parent="WXU4jRFerAaBjSiae38b-23">
          <mxGeometry x="70" y="80" width="130" height="50" as="geometry" />
        </mxCell>
      </root>
    </mxGraphModel>
  </diagram>
</mxfile>
